<svg xmlns="http://www.w3.org/2000/svg" width="1200" height="630" viewBox="0 0 1200 630" role="img" aria-labelledby="title desc">
  <title id="title">Vaelinya social card</title>
  <desc id="desc">A colourful story-world card with a glowing bridge, stars, mist, and the words Vaelinya is your next adventure.</desc>
  <rect width="1200" height="630" fill="#1f285f"/>
  <circle cx="950" cy="120" r="150" fill="#f7c45f" opacity="0.9"/>
  <circle cx="950" cy="120" r="95" fill="#f7e7a1" opacity="0.7"/>
  <path d="M0 470 C170 420 260 500 410 455 C560 410 690 430 830 480 C980 535 1080 500 1200 455 L1200 630 L0 630 Z" fill="#3d8f8a" opacity="0.95"/>
  <path d="M0 515 C180 480 320 540 505 500 C700 455 860 500 1010 535 C1100 555 1160 535 1200 520 L1200 630 L0 630 Z" fill="#235f6d" opacity="0.9"/>
  <path d="M305 410 C430 280 590 280 720 410" fill="none" stroke="#f5d089" stroke-width="34" stroke-linecap="round"/>
  <path d="M320 410 C440 315 585 315 705 410" fill="none" stroke="#fff0ba" stroke-width="10" stroke-linecap="round" opacity="0.9"/>
  <path d="M220 430 C370 390 560 390 760 430 C890 455 1010 455 1135 425" fill="none" stroke="#c7f0e8" stroke-width="8" stroke-linecap="round" opacity="0.55"/>
  <g fill="#ffffff" opacity="0.95">
    <text x="86" y="170" font-family="Georgia, serif" font-size="82" font-weight="700">Vaelinya</text>
    <text x="90" y="238" font-family="Arial, sans-serif" font-size="36">is your next adventure</text>
    <text x="90" y="305" font-family="Arial, sans-serif" font-size="26" opacity="0.86">Stories · World · Language · Artefacts</text>
  </g>
  <g fill="#fff7c7" font-family="Georgia, serif" font-size="42">
    <text x="160" y="425">✦</text>
    <text x="800" y="230">✧</text>
    <text x="1040" y="330">✦</text>
    <text x="650" y="150">✧</text>
  </g>
</svg>
